<svg xmlns="http://www.w3.org/2000/svg" viewBox="0 0 912.8 1021.1"><path d="M456.9 44.3L52.2 278v386h809.5V278z" fill="#14465f"/><path d="M456.9 10.8L23.2 261.3V664v98.2L457 1012.6l433.8-250.4V664 261.3L456.9 10.8zM52.2 664V278L456.9 44.3 861.7 278v386H52.2z" fill="#bbdb73"/><path d="M481.8 786.3V664H432v122.3l-64.3 37.2v103.1l89.2 51.5 89.3-51.5V823.5z" fill="#14465f"/><path d="M435.3 371.6l-149.6-90.2v166.3L432 525.8V664h49.8v-98.3l-46.5-40.6zm51.5-134.1v155.8l149.6-79.8V147.2z" fill="#bbdb73"/></svg>